<svg xmlns="http://www.w3.org/2000/svg" viewBox="0 0 272.93 272.87"><defs><style>.cls-1{fill:#494d56;}.cls-2{fill:#fff;}</style></defs><title>17Recurso 1x13</title><g id="Capa_2" data-name="Capa 2"><g id="Capa_1-2" data-name="Capa 1"><path class="cls-1" d="M272.93,136.31c0,71.49-54.92,130.26-124.67,135.86a64.67,64.67,0,0,1-11.61.7,136.57,136.57,0,0,1-29.57-3.12C45.8,256,0,201.37,0,136.31,0,60.94,61.32,0,136.65,0A136.17,136.17,0,0,1,272.93,136.31Z"/><path class="cls-2" d="M152.14,107.75c2.1-2.48,6.33-4.26,12.34-4.26A71.05,71.05,0,0,1,183.12,106l5.31-28.62c-10.91-3.82-22.17-4.9-33.81-4.9s-20.8,1.79-28.17,6-12.34,8.84-15.14,15.59c-2.83,5.91-4.23,16.15-4.23,28.81v11.25H84.5V166.9h22.58V269.75a136.57,136.57,0,0,0,29.57,3.12,64.67,64.67,0,0,0,11.61-.7V166.9h29.93V134.14H148.26V123.59C148.26,115.51,149.34,110.55,152.14,107.75Z"/></g></g></svg>