<svg xmlns="http://www.w3.org/2000/svg" viewBox="0 0 272.93 272.87"><defs><style>.cls-1{fill:#494d56;}.cls-2{fill:#fff;fill-rule:evenodd;}</style></defs><title>17Recurso 3x14</title><g id="Capa_2" data-name="Capa 2"><g id="Capa_1-2" data-name="Capa 1"><path class="cls-1" d="M272.93,136.31c0,71.49-54.92,130.26-124.67,135.86a64.67,64.67,0,0,1-11.61.7,136.57,136.57,0,0,1-29.57-3.12C45.8,256,0,201.37,0,136.31,0,60.94,61.32,0,136.65,0A136.17,136.17,0,0,1,272.93,136.31Z"/><path class="cls-2" d="M191.84,61.35H82.56c-13,0-19.73,6.79-19.73,19.86v109c0,12.55,6.92,19.47,19.09,19.47H191.84c12.69,0,19.67-6.92,19.67-19.67V80.76C211.51,68.14,204.53,61.35,191.84,61.35Zm-12,16.72c14.73,0,14.73,0,14.73,14.73,0,14.42,0,14.42-14.48,14.42s-14.6,0-14.6-14.61S165.45,78.07,179.8,78.07ZM137.27,106.7c15.5,0,28.82,13.39,28.56,28.83-.12,15.82-13.32,29-29.07,28.7s-28.83-13.52-28.45-29.08S121.76,106.7,137.27,106.7ZM194.53,184c-.12,6.92-1.92,8.9-8.83,8.9H88.58c-6.79,0-8.71-2-8.71-8.9,0-17.81.07-36-.25-54.06,0-5.13,1.41-6.29,6.14-6.09,6.79.45,6.92.19,6.15,6.79-2.63,23,13.26,45.22,35.87,49.64,23.32,4.49,46.64-9.48,53-31.83a45.57,45.57,0,0,0,1-21.33c-.51-2.57.13-3.08,2.44-3.08,10.24-.77,10.24-1,10.24,9.68Z"/></g></g></svg>