<svg xmlns="http://www.w3.org/2000/svg" viewBox="0 0 273.93 274"><defs><style>.cls-1{fill:#494d56;}.cls-2{fill:#fff;fill-rule:evenodd;}</style></defs><title>17Recurso 2x14</title><g id="Capa_2" data-name="Capa 2"><g id="Capa_1-2" data-name="Capa 1"><path class="cls-1" d="M273.93,137.07A137,137,0,1,1,137,0,137,137,0,0,1,273.93,137.07Z"/><path class="cls-2" d="M54.07,192.79a77.92,77.92,0,0,0,37.54-6.51,65.07,65.07,0,0,0,15.06-9,36.12,36.12,0,0,1-15.57-3.89c-8-4-13.73-10.54-17.18-19.15-.76-1.92-.76-1.92,1.35-1.79,5.74.51,10,.38,13.21-.89-3.12-1.09-6.07-1.66-8.49-3.32-12-6.58-18.38-16.92-19.47-30.65-.13-1.59.32-1.78,1.79-1.08a35.78,35.78,0,0,0,14.1,3.89c-2.29-2.1-4.27-3.76-6.06-5.55a36.89,36.89,0,0,1-5.68-40.8c.89-1.72,1.21-1.72,2.43-.38,16.79,19.35,37.66,31.09,62.81,35.05,2.56.51,5.36.58,8,1,1.78.32,2-.51,1.71-1.92a36,36,0,0,1,60.27-32.36,3.89,3.89,0,0,0,4,1,67,67,0,0,0,19-7.4,4.28,4.28,0,0,0,1.53-1c-2.56,8.49-7.67,14.75-15.2,19.86a72.29,72.29,0,0,0,19.41-5.11c.13.9-.51,1.41-.89,2.11a72.45,72.45,0,0,1-14.94,15.25,3.13,3.13,0,0,0-1.34,2.94c.44,26.37-8,49.86-24.84,70.29-15.83,18.64-36.07,29.81-60.13,33.77-25.54,4-49.55-.38-71.63-14A1.7,1.7,0,0,0,54.07,192.79Z"/></g></g></svg>