<?xml version="1.0" encoding="utf-8"?>
<!-- Generator: Adobe Illustrator 22.1.0, SVG Export Plug-In . SVG Version: 6.00 Build 0)  -->
<svg version="1.1" xmlns="http://www.w3.org/2000/svg" xmlns:xlink="http://www.w3.org/1999/xlink" x="0px" y="0px"
	 viewBox="0 0 1920 1080" style="enable-background:new 0 0 1920 1080;" xml:space="preserve">
<style type="text/css">
	.st0{display:none;fill:none;stroke:#000000;stroke-miterlimit:10;}
	.st1{display:none;fill:#FFFFFF;}
	.st2{display:none;}
	.st3{font-family:'Ubuntu-Bold';}
	.st4{font-size:60px;}
	.st5{fill:url(#SVGID_1_);}
	.st6{fill:url(#SVGID_2_);}
	.st7{fill:url(#SVGID_3_);}
	.st8{fill:url(#SVGID_4_);}
	.st9{fill:url(#SVGID_5_);}
	.st10{fill:url(#SVGID_6_);}
	.st11{fill:url(#SVGID_7_);}
	.st12{fill:url(#SVGID_8_);}
	.st13{fill:#DEBA44;}
	.st14{fill:#EFB810;}
	.st15{fill:#BF9B30;}
	.st16{fill:#FFDC73;}
	.st17{fill:#FFFFFF;}
</style>
<g id="Capa_1">
	<path class="st0" d="M1509.5,908c21.1,0,41.3,3.5,60.2,9.9c-1.1-9.1-1.7-18.4-1.7-27.9c0-73.4,34.5-138.7,88.3-180.6
		c-4.7-15.1-7.3-31.2-7.3-47.9c0-72.7,48.4-134.2,114.8-153.9C1632.4,426,1545,280.5,1545,114.5c0-39.5,5-77.9,14.3-114.5H404.5
		C414.9,13.8,421,30.9,421,49.5c0,45.6-36.9,82.5-82.5,82.5S256,95.1,256,49.5c0-18.6,6.1-35.7,16.5-49.5H0v436.6
		C20.4,422.4,45.2,414,72,414c69.6,0,126,56.4,126,126c0,29.9-10.4,57.4-27.8,79C329.7,662.1,447,807.9,447,981
		c0,34.3-4.6,67.5-13.2,99h888.9C1330.5,983.7,1411.2,908,1509.5,908z"/>
	<rect x="477" y="282" class="st1" width="966" height="516"/>
	<text transform="matrix(1 0 0 1 608.5251 467.813)" class="st2 st3 st4">THE LASH CONFERENCE</text>
	<g>
		<linearGradient id="SVGID_1_" gradientUnits="userSpaceOnUse" x1="37.8936" y1="960.6796" x2="258.1656" y2="838.8821">
			<stop  offset="0" style="stop-color:#FFDC73"/>
			<stop  offset="1" style="stop-color:#DEBA44"/>
		</linearGradient>
		<path class="st5" d="M170.2,619c-23.1,28.7-58.5,47-98.2,47c-26.8,0-51.6-8.4-72-22.6V1080h433.8c8.6-31.5,13.2-64.7,13.2-99
			C447,807.9,329.7,662.1,170.2,619z"/>
	</g>
	<g>
		<linearGradient id="SVGID_2_" gradientUnits="userSpaceOnUse" x1="1392.6267" y1="1089.3612" x2="1530.0618" y2="1013.3677">
			<stop  offset="0" style="stop-color:#FFDC73"/>
			<stop  offset="1" style="stop-color:#DEBA44"/>
		</linearGradient>
		<path class="st6" d="M1569.7,917.9c-18.9-6.4-39.1-9.9-60.2-9.9c-98.3,0-179,75.7-186.9,172h346.5
			C1615.4,1043.8,1577.9,985.3,1569.7,917.9z"/>
	</g>
	<g>
		<linearGradient id="SVGID_3_" gradientUnits="userSpaceOnUse" x1="295.0578" y1="77.6684" x2="369.8562" y2="36.3092">
			<stop  offset="0" style="stop-color:#FFDC73"/>
			<stop  offset="1" style="stop-color:#DEBA44"/>
		</linearGradient>
		<path class="st7" d="M338.5,132c45.6,0,82.5-36.9,82.5-82.5c0-18.6-6.1-35.7-16.5-49.5h-132C262.1,13.8,256,30.9,256,49.5
			C256,95.1,292.9,132,338.5,132z"/>
	</g>
	<g>
		<linearGradient id="SVGID_4_" gradientUnits="userSpaceOnUse" x1="1702.3693" y1="677.2303" x2="1837.8247" y2="602.3314">
			<stop  offset="0" style="stop-color:#FFDC73"/>
			<stop  offset="1" style="stop-color:#DEBA44"/>
		</linearGradient>
		<path class="st8" d="M1649,661.5c0,16.7,2.5,32.7,7.3,47.9c38.8-30.3,87.7-48.4,140.7-48.4c45.3,0,87.5,13.1,123,35.8V568.7
			c-56.4-10.8-109.1-31.8-156.2-61.1C1697.4,527.3,1649,588.8,1649,661.5z"/>
	</g>
	<g>
		<linearGradient id="SVGID_5_" gradientUnits="userSpaceOnUse" x1="1666.1931" y1="960.4761" x2="1861.1622" y2="852.6696">
			<stop  offset="0" style="stop-color:#FFDC73"/>
			<stop  offset="1" style="stop-color:#DEBA44"/>
		</linearGradient>
		<path class="st9" d="M1797,661c-53.1,0-101.9,18.1-140.7,48.4c-53.7,41.9-88.3,107.2-88.3,180.6c0,9.4,0.6,18.7,1.7,27.9
			c8.2,67.5,45.7,125.9,99.4,162.1h27.2H1920V777.9v-81.1C1884.5,674.1,1842.3,661,1797,661z"/>
	</g>
	<g>
		<linearGradient id="SVGID_6_" gradientUnits="userSpaceOnUse" x1="1684.1492" y1="315.0526" x2="1884.2206" y2="204.4249">
			<stop  offset="0" style="stop-color:#FFDC73"/>
			<stop  offset="1" style="stop-color:#DEBA44"/>
		</linearGradient>
		<path class="st10" d="M1559.3,0c-9.3,36.6-14.3,75-14.3,114.5c0,166,87.4,311.5,218.8,393.1c47.1,29.3,99.9,50.3,156.2,61.1v-23.6
			V0H1559.3z"/>
	</g>
	<g>
		<linearGradient id="SVGID_7_" gradientUnits="userSpaceOnUse" x1="12.2034" y1="573.0656" x2="120.5616" y2="513.1499">
			<stop  offset="0" style="stop-color:#FFDC73"/>
			<stop  offset="1" style="stop-color:#DEBA44"/>
		</linearGradient>
		<path class="st11" d="M72,414c-26.8,0-51.6,8.4-72,22.6v176.3v30.5C20.4,657.6,45.2,666,72,666c39.7,0,75.1-18.3,98.2-47
			c17.4-21.6,27.8-49.1,27.8-79C198,470.4,141.6,414,72,414z"/>
	</g>
	<g>
		<linearGradient id="SVGID_8_" gradientUnits="userSpaceOnUse" x1="190.9901" y1="144.7231" x2="229.0701" y2="123.6671">
			<stop  offset="0" style="stop-color:#FFDC73"/>
			<stop  offset="1" style="stop-color:#DEBA44"/>
		</linearGradient>
		<circle class="st12" cx="214" cy="132" r="42"/>
	</g>
</g>
<g id="paleta">
	<g>
		<rect x="213.5" y="-743.5" class="st13" width="212" height="212"/>
		<path d="M425-743v211H214v-211H425 M426-744H213v213h213V-744L426-744z"/>
	</g>
	<g>
		<rect x="426.5" y="-743.5" class="st14" width="212" height="212"/>
		<path d="M638-743v211H427v-211H638 M639-744H426v213h213V-744L639-744z"/>
	</g>
	<g>
		<rect x="0.5" y="-743.5" class="st15" width="212" height="212"/>
		<path d="M212-743v211H1v-211H212 M213-744H0v213h213V-744L213-744z"/>
	</g>
	<g>
		<rect x="639.5" y="-743.5" class="st16" width="212" height="212"/>
		<path d="M851-743v211H640v-211H851 M852-744H639v213h213V-744L852-744z"/>
	</g>
	<g>
		<rect x="852.5" y="-743.5" class="st17" width="212" height="212"/>
		<path d="M1064-743v211H853v-211H1064 M1065-744H852v213h213V-744L1065-744z"/>
	</g>
</g>
</svg>
